<?xml version="1.0" encoding="iso-8859-1"?>
<!-- Uploaded to: SVG Repo, www.svgrepo.com, Generator: SVG Repo Mixer Tools -->
<svg height="800px" width="800px" version="1.1" id="Layer_1" xmlns="http://www.w3.org/2000/svg" xmlns:xlink="http://www.w3.org/1999/xlink" 
	 viewBox="0 0 512 512" xml:space="preserve">
<path style="fill:#FFDD77;" d="M258.769,8.192C364.067,9.902,470.813,120.2,470.813,256S364.067,502.098,258.769,503.808
	c-0.828,0.011-1.667,0.022-2.495,0.022c-0.828,0-1.667-0.011-2.495-0.022C148.482,502.098,41.736,391.8,41.736,256
	S148.482,9.902,253.78,8.192c0.828-0.011,1.667-0.022,2.495-0.022C257.102,8.17,257.941,8.181,258.769,8.192z"/>
<path style="fill:#FFCC3D;" d="M258.769,8.192C394.493,9.521,504.104,119.961,504.104,256S394.493,502.479,258.769,503.808
	C364.067,502.098,449.026,391.8,449.026,256S364.067,9.902,258.769,8.192z"/>
<path style="fill:#F9F0B5;" d="M253.78,8.192C148.482,9.902,63.523,120.2,63.523,256s84.959,246.098,190.257,247.808
	C118.056,502.479,8.445,392.039,8.445,256S118.056,9.521,253.78,8.192z"/>
<path style="fill:#FF7A2F;" d="M315.389,330.375c0-8.394,6.867-15.261,15.261-15.261h87.386c8.393,0,15.261-6.867,15.261-15.261
	v-87.708c0-8.394-6.867-15.261-15.261-15.261H330.65c-8.394,0-15.261-6.867-15.261-15.261V94.24c0-8.394-6.867-15.261-15.261-15.261
	H212.42c-8.394,0-15.261,6.867-15.261,15.261v87.386c0,8.394-6.867,15.261-15.261,15.261H94.514
	c-8.394,0-15.261,6.867-15.261,15.261v87.708c0,8.394,6.867,15.261,15.261,15.261H181.9c8.394,0,15.261,6.867,15.261,15.261v87.386
	c0,8.394,6.867,15.261,15.261,15.261h87.708c8.394,0,15.261-6.867,15.261-15.261v-87.389H315.389z"/>
<g>
	<path style="fill:#1D2328;" d="M212.421,441.191h87.708c12.92,0,23.431-10.511,23.431-23.431v-87.386c0-3.91,3.18-7.09,7.09-7.09
		h87.386c12.92,0,23.431-10.511,23.431-23.431v-87.708c0-12.92-10.51-23.431-23.431-23.431H330.65c-3.91,0-7.09-3.18-7.09-7.09
		V94.24c0-12.92-10.51-23.431-23.431-23.431h-87.708c-12.92,0-23.431,10.511-23.431,23.431v87.386c0,3.91-3.181,7.09-7.091,7.09
		H94.514c-12.92,0-23.431,10.511-23.431,23.431v87.708c0,12.92,10.511,23.431,23.431,23.431h87.385c3.91,0,7.091,3.18,7.091,7.09
		v87.386C188.99,430.68,199.501,441.191,212.421,441.191z M181.899,306.944H94.514c-3.91,0-7.091-3.181-7.091-7.091v-87.708
		c0-3.91,3.181-7.091,7.091-7.091h87.385c12.92,0,23.431-10.51,23.431-23.43V94.24c0-3.91,3.181-7.091,7.091-7.091h87.708
		c3.91,0,7.091,3.181,7.091,7.091v87.386c0,12.92,10.51,23.43,23.43,23.43h87.386c3.91,0,7.091,3.181,7.091,7.091v87.708
		c0,3.91-3.181,7.091-7.091,7.091H330.65c-12.919,0-23.43,10.51-23.43,23.43v87.386c0,3.91-3.181,7.091-7.091,7.091h-87.708
		c-3.91,0-7.091-3.181-7.091-7.091v-87.386C205.33,317.455,194.819,306.944,181.899,306.944z"/>
	<path style="fill:#1D2328;" d="M504.086,264.188c-4.498-0.286-8.39,3.12-8.684,7.622c-8.173,125.523-113.21,223.85-239.127,223.85
		c-132.149,0-239.66-107.51-239.66-239.66s107.51-239.66,239.66-239.66c125.917,0,230.953,98.327,239.127,223.85
		c0.294,4.503,4.177,7.915,8.684,7.622c4.503-0.294,7.915-4.181,7.622-8.684c-4.218-64.778-32.658-125.023-80.083-169.634
		C383.986,24.681,321.712,0,256.274,0c-68.38,0-132.667,26.628-181.019,74.981C26.904,123.333,0.274,187.621,0.274,256
		c0,68.38,26.628,132.668,74.981,181.019C123.608,485.372,187.895,512,256.274,512c65.437,0,127.71-24.681,175.35-69.494
		c47.424-44.613,75.865-104.857,80.083-169.634C512,268.369,508.588,264.481,504.086,264.188z"/>
</g>
</svg>