<svg id="Layer_2" data-name="Layer 2" xmlns="http://www.w3.org/2000/svg" viewBox="0 0 1000 1000"><defs><style>.cls-1,.cls-2,.cls-5,.cls-6,.cls-9{fill:none;stroke-width:5.4px;}.cls-1{stroke:#ccdde2;}.cls-1,.cls-5{stroke-miterlimit:10;}.cls-2,.cls-9{stroke:#000;}.cls-2,.cls-6{stroke-linecap:round;}.cls-2,.cls-6,.cls-9{stroke-linejoin:round;}.cls-3{fill:#3fbdf1;}.cls-4{fill:#d7e8f0;}.cls-5,.cls-6{stroke:#fff;}.cls-7{fill:#fff;}.cls-8{fill:#2e2e2e;}</style></defs><path class="cls-1" d="M182.76,190.4c.33-.39.72-.75,1.08-1.12,70.48-70,184.37-79,275.31-50.44,44.46,13.95,79.34,53.15,121.14,72.6,13.91,6.45,28.57,10.7,44.6,11.14C666.83,223.73,706,196,747.83,199.19c53.4,4,84.85,58,92.45,106,12.54,79.37-23.78,165.49-69,228.9-24.82,34.84-52.75,67-79.55,100.24-20.79,25.87-34.49,65-7,91.88,36.5,35.67,47.73-43.27,90.76-25.25,107.13,44.85,94.91,141,70.59,182.16-22.2,37.65-65,62.91-108.64,66.48a127,127,0,0,1-20.82,0"/><path class="cls-1" d="M375.85,691.44c0,.11,0,.22,0,.33,0,7.35,32.54,35.38,37.44,40.57"/><path class="cls-1" d="M274.6,949.24c-9.87.33-19.2.29-28.06-.07C144,936.58,66.87,732.34,187.52,670.34"/><path class="cls-2" d="M390.9,419.93V213a22.64,22.64,0,0,0-22.61-22.61h-289A22.64,22.64,0,0,0,56.73,213V623.29a22.6,22.6,0,0,0,22.61,22.57h289a21.32,21.32,0,0,0,8.18-1.57"/><rect class="cls-3" x="66.87" y="204.24" width="313.89" height="427.84" rx="18.62"/><rect class="cls-3" x="85.35" y="237.35" width="280.36" height="80.1" rx="9.31"/><circle class="cls-4" cx="223.81" cy="262.8" r="8.29"/><path class="cls-4" d="M200.67,300.29a23.15,23.15,0,1,1,46.29,0Z"/><line class="cls-5" x1="113.39" y1="353.21" x2="331.38" y2="353.21"/><line class="cls-5" x1="113.39" y1="374.67" x2="331.38" y2="374.67"/><line class="cls-5" x1="113.39" y1="512.85" x2="331.38" y2="512.85"/><line class="cls-5" x1="164.02" y1="533.14" x2="280.75" y2="533.14"/><path class="cls-3" d="M168.63,455.77l-17.39,18.48a15.67,15.67,0,1,1-22.83-21.48l17.38-18.48Z"/><path class="cls-4" d="M186,437.27l-17.39,18.5-22.84-21.48,17.4-18.49a15.72,15.72,0,0,1,22.16-.68,15.75,15.75,0,0,1,.67,22.15Z"/><path class="cls-4" d="M253.59,425.23c-.74-3.58,6.6-9.5,9-10.79,8.93-4.68,22.67-1.15,27.56,7.79,11.23,20.5-20.32,49.72-36.61,56.94-1.87-1.5-46.44-34.84-36-56.18S251,412.49,253.59,425.23Z"/><line class="cls-6" x1="219.96" y1="461.77" x2="244.25" y2="461.77"/><line class="cls-6" x1="232.1" y1="473.91" x2="232.1" y2="449.62"/><path class="cls-3" d="M701.21,467.23s-56.1-30.23-92.28-37.54c0,0-.25,5.4-6.27,18.73s-23.78,52.72-23.78,52.72l-26.66-20.25.4,30.19L479.48,589.2,433.25,488l6.16-28.47-26.34,10.09L399,419.42s-69.36,15.6-129.1,63.67-76.85,123-82.4,187.25,1.12,132,86,154.89c0,0,39.88,10,72.35-3.38,10.12-4.18,24.82-8.08,40.24-11.5l-.5.18s-7,24.29-27.28,37.51c0,0,35.53,27,96.24,38.77s189,18.81,253.66-37.29,67.3-148.59,67.3-148.59S796.51,522.36,701.21,467.23ZM369,625.05a11.23,11.23,0,1,1,11.6-11.28A11.48,11.48,0,0,1,369,625.05ZM615.53,728c-1.7,8.64-10.81,63.3-33.33,69.72s-44.75-7.54-97.28-2.09c0,0-11.32.43-27,1.83-32.75-38.37.22-93.06.22-93.06s74.44-22.67,109.93-6.31S617.26,719.34,615.53,728Z"/><path class="cls-3" d="M678,879.31v70.3c-113.5,0-267.06-.18-378-.32-1.37-36.18-3.53-119.41,5.65-120,11.75-.72,24.18-8.25,38.52,8.87s74.37,47.74,158.46,54.94,155-12.61,170.75-21.18C673.39,871.93,678,863.71,678,879.31Z"/><path class="cls-7" d="M369,593.22c11.66,0,21.15,9.24,21.15,20.6s-9.49,20.6-21.15,20.6-21.14-9.24-21.14-20.6,9.48-20.6,21.14-20.6m0-7.21c-15.66,0-28.35,12.45-28.35,27.81s12.69,27.81,28.35,27.81,28.35-12.45,28.35-27.81S384.65,586,369,586Z"/><path class="cls-3" d="M512.18,460.49,494,480.92a5.65,5.65,0,0,1-8.11-1.08l-12.79-27.52L498,432.53Z"/><polyline class="cls-3" points="500.65 473.43 508.36 504.4 485.86 532.97 469.06 495.71 481.51 470.47"/><path class="cls-8" d="M577.23,251.59c-4,.9-7.5,4-10.17,7.31A49.77,49.77,0,0,0,560.8,269s-8.44-36-12-67.23c-1.19-10.16-4.75-15.6-9.08-18.34-8.93-5.66-21,.39-21,.39l-40.1,21.84a65.4,65.4,0,0,1-24.9,7.78,53.73,53.73,0,0,1-12.29,0c-22.09-10.92-22.41-54,4.43-54.3a25.82,25.82,0,0,1,2.27,2.41q-.58-1.19-1.08-2.37a27.8,27.8,0,0,1,4.47.5c2.2.43,4.25,2.7,5.62,4.29-7.13-13.84.47-31.28,14.52-36.57,8.54-3.21,18.09-2.6,27-.72,1.41.28,2.81.61,4.22,1,22.34,6.74,41.9,18.45,56.35,38C577.52,190.41,582.09,221.72,577.23,251.59Z"/><path class="cls-9" d="M322.54,625.61c-24.47,109,69.46,90.74,191.52,69.25,43.61-7.67,80.72,11.26,102.22,28.92"/><path class="cls-9" d="M399,419.41c-55.47,13.65-120.91,46.76-156.91,91.7-47.13,58.75-57,136.87-55.93,210,1,71.45,75.87,120.8,143.83,105.36"/><line class="cls-9" x1="427.73" y1="392.72" x2="427.77" y2="392.72"/><path class="cls-9" d="M622.28,629.63s2,47.29-6,94.15c-3.63,21.39-9.34,42.69-18.25,59.37A28.41,28.41,0,0,1,573.65,798a236.1,236.1,0,0,1-27.37-1.09c-78.38-7.36-151.84,8.79-205.41,26.54q-5.4,1.77-10.86,3c33.79,30.66,120.72,87.34,285.08,62.76,221-33,151.93-324.83,151.93-324.83-6-31.44-24.74-60.63-47.27-82.74-25.52-25-75-41.53-108.64-52"/><path class="cls-9" d="M492.9,374.7s-67.24-12-58.23-91.3c4-35.28,11.71-56.86,19-70"/><path class="cls-9" d="M556.58,353.84v0C569,335.28,567.1,310.64,571,304.44c6-9.62,30-39.63,15.6-50.44-3.32-2.49-6.49-3-9.37-2.42-9.69,2.16-16.43,17.41-16.43,17.41s-8.43-36-12-67.24-30.09-17.94-30.09-17.94l-40.1,21.83a65.19,65.19,0,0,1-24.9,7.79,55.1,55.1,0,0,1-13.76-.11c-31-4-33-62.69,2.56-56,2.2.43,4.25,2.7,5.62,4.29-7.14-13.84.47-31.28,14.52-36.57,8.54-3.21,18.09-2.6,27-.72,27.82,5.87,52.35,18,69.58,41.36,18.3,24.75,22.88,56.06,18,85.93"/><polyline class="cls-9" points="484.5 300.22 470.09 300.22 471.03 288.8 474.88 242.57"/><path class="cls-9" d="M471,288.8H431.42a10.58,10.58,0,0,1-10.58-10.58V242.58h66.9v35.64a10.59,10.59,0,0,0,10.59,10.58h39.25a10.59,10.59,0,0,0,10.59-10.58V242.58H487.74"/><path class="cls-9" d="M484.5,314s10.21,3.6,21.62-13.82"/><path class="cls-9" d="M479.07,592.7,553.59,510l-1.36-29.12L578,503.09l33.11-73.41.09-.19a129.76,129.76,0,0,1-22.53-16.81q-4.75-4.46-9-9.32a129.88,129.88,0,0,1-9.34-11.94L568,388.13"/><polyline class="cls-9" points="527.95 478.02 512.61 456.89 496.25 435.33 530.59 414.55 568.03 388.13 579.64 403.36 583.54 408.49 574.07 420.62 500.12 515.54 500.12 515.58 486.13 532.97"/><path class="cls-9" d="M456.23,466l40-30.64-49.14-49.11-18.62,17.56L486.12,533l-7.05,59.71L433.26,488l6.13-28.46L413.05,469.6l-15.29-49.67h0a130,130,0,0,0,46.57-30.83l2.78-2.88"/><path class="cls-9" d="M512.61,460.49,494.4,480.92a5.64,5.64,0,0,1-8.1-1.08l-12.8-27.52"/><line class="cls-9" x1="501.08" y1="473.43" x2="508.8" y2="504.4"/><line class="cls-9" x1="481.94" y1="470.47" x2="469.49" y2="495.71"/><path class="cls-9" d="M568,388.13,556.58,353.8a37.4,37.4,0,0,1-11.75,10.67"/><line class="cls-9" x1="454.96" y1="353.8" x2="447.11" y2="386.22"/><circle cx="509.24" cy="266.14" r="5.26"/><circle cx="463.37" cy="266.14" r="5.26"/><path class="cls-9" d="M610.23,430s35.38,13.58,3.6,68.49c-10,17.22-15.42,27.42-18.19,33.26"/><path class="cls-9" d="M535.16,652.65s-13.83-6.19-13.41-10,28.24-94.8,47.56-106.58,31.7-1.62,31.7-1.62,18.76,10.16,13.11,36.69-40.25,89.9-40.25,89.9l-13.57-4.64"/><path class="cls-9" d="M385.6,423.22s-20.1,66-16,164.29"/><ellipse class="cls-9" cx="368.99" cy="613.82" rx="30.03" ry="28.91" transform="translate(-3.01 1.82) rotate(-0.28)"/><polyline class="cls-9" points="678.04 949.61 678.04 869.58 678.04 867.53"/><polyline class="cls-9" points="300.69 949.32 300.69 829.23 300.69 829.19"/><path class="cls-9" d="M157.22,949.07s59.34.11,142.79.22c111,.14,264.53.32,378,.32,87.48,0,151.11-.18,153-.54"/><circle class="cls-7" cx="539.55" cy="653.73" r="7.31"/><circle class="cls-7" cx="556.66" cy="655.15" r="7.31"/><circle class="cls-3" cx="789.44" cy="204.24" r="120.62"/><path class="cls-3" d="M789,50h0a154.24,154.24,0,0,0-133.57,77.12h0a154.18,154.18,0,0,0,0,154.23h0A154.24,154.24,0,0,0,789,358.47h0a154.24,154.24,0,0,0,133.57-77.12h0a154.23,154.23,0,0,0,0-154.23h0A154.24,154.24,0,0,0,789,50Z"/><polygon class="cls-7" points="824.79 165.15 820.67 162.25 862.48 102.26 866.6 105.16 824.79 165.15"/><rect class="cls-7" x="738.72" y="262.65" width="21.17" height="13.37" transform="translate(99.13 728.97) rotate(-55.03)"/><path class="cls-7" d="M831.87,180.85l-57.1,81.63c-3,4.35-8.09,6.08-11.29,3.85L747.26,255c-3.19-2.23-3.29-7.56-.25-11.92l57.1-81.63c3-4.35,8.09-6.09,11.29-3.85l16.22,11.34C834.81,171.16,834.91,176.49,831.87,180.85Z"/><path class="cls-7" d="M762,300.7a9.54,9.54,0,0,1-4.55,3.59,5,5,0,0,1-4.67-.42l-37-25.91c-2.6-1.82-2.66-6.22-.19-9.75a9.56,9.56,0,0,1,4.57-3.61,5.1,5.1,0,0,1,4.65.45l37,25.91C764.36,292.77,764.44,297.15,762,300.7Z"/><circle class="cls-4" cx="838.98" cy="434.29" r="43.23"/><circle class="cls-7" cx="825.07" cy="422.85" r="13.91"/><circle class="cls-4" cx="145.79" cy="827.04" r="43.23"/><circle class="cls-4" cx="705.17" cy="396.28" r="21.61"/><circle class="cls-7" cx="134.89" cy="814.76" r="13.91"/><circle class="cls-4" cx="861.02" cy="836.38" r="21.61"/><circle class="cls-7" cx="697.47" cy="391.07" r="7.7"/><circle class="cls-7" cx="852.03" cy="831.91" r="5.37"/><circle class="cls-4" cx="351.62" cy="124.66" r="21.61"/><circle class="cls-7" cx="348.34" cy="122.74" r="7.7"/><circle class="cls-7" cx="795.76" cy="646.42" r="80.04"/><circle class="cls-3" cx="795.76" cy="646.42" r="61.64"/><path class="cls-7" d="M795,633.94c-.73-3.58,6.6-9.5,9.05-10.79,8.94-4.68,22.67-1.15,27.57,7.79,11.22,20.5-20.33,49.73-36.61,56.94-1.88-1.5-46.45-34.84-36-56.18S792.42,621.21,795,633.94Z"/></svg>