<?xml version="1.0" standalone="no"?>
<!DOCTYPE svg PUBLIC "-//W3C//DTD SVG 20010904//EN"
 "http://www.w3.org/TR/2001/REC-SVG-20010904/DTD/svg10.dtd">
<svg version="1.0" xmlns="http://www.w3.org/2000/svg"
 width="852.000000pt" height="1280.000000pt" viewBox="0 0 852.000000 1280.000000"
 preserveAspectRatio="xMidYMid meet">
<metadata>
Created by potrace 1.15, written by Peter Selinger 2001-2017
</metadata>
<g transform="translate(0.000000,1280.000000) scale(0.100000,-0.100000)"
fill="#e91e63" stroke="none">
<path d="M2826 12744 c-120 -74 -179 -125 -201 -173 -17 -38 -17 -42 -1 -66
17 -26 59 -49 108 -60 146 -30 268 -420 310 -989 9 -136 9 -161 -3 -164 -54
-18 -301 -154 -379 -209 -124 -88 -329 -293 -402 -403 -76 -115 -151 -271
-195 -407 -20 -63 -37 -112 -38 -111 -4 6 25 276 41 378 9 58 27 158 40 224
13 65 24 129 24 143 0 13 12 41 26 62 72 109 22 203 -148 280 -127 58 -345
100 -515 101 -122 0 -302 -27 -408 -61 -110 -35 -227 -108 -265 -166 -32 -49
-32 -119 -2 -262 28 -131 86 -536 106 -741 76 -765 52 -1452 -67 -1935 l-22
-89 -55 -33 c-63 -37 -224 -194 -313 -303 -244 -302 -388 -643 -449 -1065 -19
-134 -16 -519 6 -675 37 -265 112 -566 201 -810 78 -211 193 -472 269 -608
l73 -130 16 -148 c54 -472 229 -970 500 -1420 l67 -111 0 -264 c0 -733 -54
-1464 -144 -1979 -26 -145 -23 -170 19 -170 13 0 50 17 82 39 212 140 512 222
743 201 166 -14 254 -45 392 -137 121 -81 281 -271 380 -452 20 -37 51 -41 65
-8 8 17 5 32 -13 67 -66 127 -287 1012 -349 1399 -8 47 -13 87 -11 88 2 2 62
-37 135 -88 418 -290 1080 -615 1660 -813 150 -52 515 -161 681 -205 301 -79
821 -183 1155 -231 44 -6 130 -22 190 -35 427 -93 950 -95 1307 -4 268 68 494
189 613 330 197 233 353 725 419 1324 36 323 41 417 40 820 -1 621 -46 1084
-160 1630 -152 725 -427 1446 -744 1952 -44 70 -60 105 -65 145 -15 119 -77
424 -119 588 -195 765 -486 1289 -858 1541 -78 53 -204 112 -293 138 l-70 20
152 0 c291 2 679 -69 931 -168 52 -21 53 -21 42 -1 -10 18 -9 19 15 10 19 -7
35 -6 58 4 67 27 125 126 188 318 124 377 104 713 -51 882 -29 31 -36 46 -28
54 22 22 -70 27 -452 26 -388 -1 -565 -12 -835 -50 -100 -14 -338 -58 -376
-69 -13 -4 -18 10 -28 77 -53 356 -192 736 -353 964 -79 111 -219 252 -322
324 -44 30 -147 89 -230 130 l-151 75 1 55 c2 85 57 182 246 427 76 98 93 138
64 149 -8 3 -33 -4 -56 -16 -24 -12 -49 -18 -61 -15 -11 4 -45 45 -75 91 -62
93 -89 119 -144 135 -55 17 -89 2 -127 -55 -58 -85 -104 -275 -127 -529 -8
-81 -16 -151 -20 -154 -9 -9 -114 17 -174 43 -35 16 -55 31 -62 49 -21 56 -10
244 31 549 26 187 33 173 -97 205 -104 26 -219 29 -263 7 -68 -35 -86 -140
-77 -431 4 -110 4 -214 0 -232 l-6 -31 -36 21 c-55 33 -136 28 -257 -15 -55
-19 -107 -38 -117 -42 -14 -6 -17 4 -23 81 -26 350 -102 640 -240 918 -74 147
-193 325 -217 325 -7 0 -53 -25 -102 -56z m3387 -3081 c-7 -2 -19 -2 -25 0 -7
3 -2 5 12 5 14 0 19 -2 13 -5z m-1991 -123 c114 -185 236 -409 269 -499 l10
-26 -31 30 c-98 92 -212 297 -300 535 -37 101 -33 98 52 -40z m-192 45 c0 -8
-7 -15 -15 -15 -16 0 -20 12 -8 23 11 12 23 8 23 -8z m-280 -215 c0 -5 -5 -10
-11 -10 -5 0 -7 5 -4 10 3 6 8 10 11 10 2 0 4 -4 4 -10z m208 -765 c80 -25 57
-28 -39 -6 -46 11 -97 22 -114 25 -16 2 -1 3 35 1 36 -2 89 -11 118 -20z
m2346 -327 c59 -45 62 -48 49 -48 -7 0 -33 18 -58 40 -55 48 -50 53 9 8z m211
-188 c16 -17 16 -20 3 -15 -9 4 -19 13 -22 21 -7 19 -2 18 19 -6z m295 -400
c12 -23 12 -24 -3 -11 -10 7 -17 20 -17 29 0 18 3 16 20 -18z m-4070 -257
c-11 -17 -11 -17 -6 0 3 10 6 24 7 30 0 9 2 9 5 0 3 -7 0 -20 -6 -30z m4206
-60 l14 -48 -20 25 c-11 14 -20 38 -20 54 0 39 8 29 26 -31z m-6665 -276 c-10
-9 -11 -8 -5 6 3 10 9 15 12 12 3 -3 0 -11 -7 -18z m2339 -298 c-38 -263 -88
-829 -91 -1047 -2 -75 -2 -76 -9 -27 -19 122 -5 462 30 742 19 148 79 477 86
470 2 -2 -5 -64 -16 -138z m4439 -64 c1 -17 -1 -17 -9 -5 -5 8 -9 35 -9 60 l1
45 9 -40 c4 -22 8 -49 8 -60z m-6856 -77 c7 -4 6 -12 -2 -22 -21 -25 -27 -19
-22 22 2 20 6 30 9 22 3 -8 10 -18 15 -22z m6812 -733 c-4 -25 -10 -44 -12
-41 -3 3 -2 26 2 51 3 26 9 45 12 42 2 -3 1 -26 -2 -52z m-49 -697 c62 -66
125 -155 96 -137 -10 6 -28 28 -38 48 -10 19 -46 63 -80 98 -33 34 -53 58 -44
53 8 -4 38 -32 66 -62z m-2777 -527 c31 -113 23 -122 -15 -17 -21 58 -33 139
-19 124 3 -2 18 -51 34 -107z m139 -446 c0 -5 -6 4 -13 20 -8 17 -14 37 -14
45 0 8 7 -1 14 -20 7 -19 13 -39 13 -45z m46 -134 c-6 -7 -11 2 -17 34 l-6 30
13 -30 c8 -16 12 -32 10 -34z m-3324 -736 c14 -19 14 -19 -2 -6 -10 7 -18 18
-18 24 0 6 1 8 3 6 1 -2 9 -13 17 -24z m365 -512 l18 -28 -21 19 c-12 11 -22
23 -22 28 0 14 7 9 25 -19z m-37 -78 c-3 -3 -9 2 -12 12 -6 14 -5 15 5 6 7 -7
10 -15 7 -18z m82 -100 c13 -14 19 -25 13 -25 -6 0 -18 11 -27 25 -9 14 -15
25 -13 25 2 0 14 -11 27 -25z m79 -110 c-3 -2 -16 10 -29 28 l-23 32 29 -27
c15 -15 26 -30 23 -33z m80 -99 c-3 -3 -18 12 -33 32 l-29 37 34 -32 c18 -18
31 -35 28 -37z m101 -109 c0 -14 -27 11 -62 57 l-32 41 47 -45 c26 -24 47 -48
47 -53z m6259 -299 c-1 -40 -1 -41 -9 -15 -8 26 -4 57 6 57 2 0 4 -19 3 -42z
m-5752 -174 c2 -7 29 -29 59 -50 30 -21 54 -42 54 -47 0 -6 -8 -3 -17 5 -10 8
-64 51 -120 97 -55 45 -104 88 -107 96 -3 8 24 -8 60 -37 36 -28 68 -57 71
-64z m5762 -196 c0 -525 -110 -867 -324 -1003 -27 -18 -61 -36 -75 -40 -14 -4
2 9 35 29 114 69 208 193 236 312 6 27 21 72 34 99 29 64 46 146 44 210 -1 28
3 79 10 115 8 40 12 123 10 215 -3 112 0 159 11 188 8 20 15 37 17 37 1 0 2
-73 2 -162z m-5218 -186 c24 -15 85 -50 134 -77 73 -39 144 -81 174 -102 2 -2
2 -5 -1 -8 -8 -8 -368 199 -368 211 0 10 19 2 61 -24z m1484 -682 c8 -13 -5
-13 -25 0 -13 8 -13 10 2 10 9 0 20 -4 23 -10z m338 -107 c-7 -2 -19 -2 -25 0
-7 3 -2 5 12 5 14 0 19 -2 13 -5z m1130 -260 c-7 -2 -19 -2 -25 0 -7 3 -2 5
12 5 14 0 19 -2 13 -5z m250 -40 c-7 -2 -21 -2 -30 0 -10 3 -4 5 12 5 17 0 24
-2 18 -5z"/>
</g>
</svg>
