<?xml version="1.0" standalone="no"?>
<!DOCTYPE svg PUBLIC "-//W3C//DTD SVG 20010904//EN"
 "http://www.w3.org/TR/2001/REC-SVG-20010904/DTD/svg10.dtd">
<svg version="1.0" xmlns="http://www.w3.org/2000/svg"
 width="1280.000000pt" height="942.000000pt" viewBox="0 0 1280.000000 942.000000"
 preserveAspectRatio="xMidYMid meet">
<metadata>
Created by potrace 1.15, written by Peter Selinger 2001-2017
</metadata>
<g transform="translate(0.000000,942.000000) scale(0.100000,-0.100000)"
fill="#e91e63" stroke="none">
<path d="M7371 9409 c-133 -26 -274 -133 -339 -256 -62 -117 -62 -118 -62
-978 0 -763 1 -781 21 -825 25 -57 44 -77 94 -103 36 -19 60 -22 243 -25 l202
-4 0 -203 0 -203 -287 -4 c-267 -4 -293 -6 -358 -27 -125 -41 -203 -89 -296
-181 -71 -71 -94 -101 -133 -180 -82 -168 -76 2 -79 -2225 -1 -1091 -5 -1981
-8 -1977 -3 4 -11 27 -18 52 -43 150 -177 314 -328 401 -95 54 -187 80 -310
86 -166 8 -293 -23 -423 -104 -56 -35 -843 -811 -835 -823 2 -3 -70 -80 -161
-171 -334 -331 -529 -542 -570 -615 -155 -278 -107 -616 120 -839 84 -83 171
-136 281 -172 70 -23 96 -26 210 -26 113 0 140 3 208 25 156 52 192 81 567
454 190 189 347 344 351 344 11 0 759 757 790 799 42 59 83 142 106 216 l18
60 5 -500 c6 -559 4 -536 83 -690 30 -58 64 -103 122 -161 112 -113 222 -172
369 -198 l69 -12 17 -61 c32 -118 102 -201 209 -252 l56 -26 2285 0 2285 0 45
21 c110 53 183 137 215 249 10 33 22 63 28 66 5 4 32 10 60 13 77 11 197 61
275 116 124 87 219 216 270 365 l27 80 0 2660 0 2660 -27 80 c-39 114 -92 199
-178 285 -87 86 -172 139 -285 177 -78 26 -87 27 -367 31 l-288 4 0 203 0 203
198 4 c218 4 242 10 299 68 60 61 58 34 58 905 0 748 -1 804 -18 860 -54 176
-194 309 -368 350 -56 13 -331 15 -2234 14 -1193 -1 -2190 -5 -2214 -10z"/>
<path d="M532 1430 c-121 -32 -226 -93 -317 -185 -93 -93 -136 -162 -178 -283
-28 -80 -31 -97 -31 -222 0 -118 4 -145 26 -212 40 -121 92 -204 182 -293 128
-126 246 -183 422 -205 59 -8 425 -12 1094 -12 l1005 -1 70 22 c150 49 263
125 356 241 220 273 193 692 -59 932 -103 98 -200 150 -362 193 -14 3 -236 10
-495 16 -259 5 -555 13 -660 18 -104 5 -368 10 -585 10 -357 0 -402 -2 -468
-19z"/>
</g>
</svg>
