<?xml version="1.0" standalone="no"?>
<!DOCTYPE svg PUBLIC "-//W3C//DTD SVG 20010904//EN"
 "http://www.w3.org/TR/2001/REC-SVG-20010904/DTD/svg10.dtd">
<svg version="1.0" xmlns="http://www.w3.org/2000/svg"
 width="1280.000000pt" height="1280.000000pt" viewBox="0 0 1280.000000 1280.000000"
 preserveAspectRatio="xMidYMid meet">
<metadata>
Created by potrace 1.15, written by Peter Selinger 2001-2017
</metadata>
<g transform="translate(0.000000,1280.000000) scale(0.100000,-0.100000)"
fill="#e91e63" stroke="none">
<path d="M5489 11165 c-38 -20 -59 -58 -59 -105 0 -55 22 -94 64 -114 42 -20
59 -20 101 0 31 14 40 14 140 -10 269 -65 364 -142 373 -305 5 -89 -12 -161
-90 -393 -74 -220 -179 -480 -319 -788 -123 -268 -123 -269 -158 -275 -69 -13
-129 -38 -361 -150 -253 -122 -416 -183 -637 -238 -209 -53 -333 -69 -528 -69
-290 -1 -474 32 -747 131 -91 33 -193 65 -228 72 l-62 12 5 416 c10 737 44
917 207 1082 53 54 86 76 170 117 143 69 262 107 289 93 70 -38 150 15 151
100 0 69 -57 129 -122 129 -31 0 -85 -34 -92 -58 -5 -14 -36 -30 -112 -56
-357 -124 -524 -296 -588 -607 -36 -180 -66 -625 -66 -1001 0 -221 -1 -228
-20 -228 -32 0 -36 -45 -12 -120 18 -55 22 -100 27 -285 13 -460 61 -708 181
-935 91 -172 227 -312 369 -380 69 -33 200 -70 247 -70 16 0 31 -6 34 -14 8
-20 -153 -334 -270 -528 -113 -188 -355 -549 -525 -783 -216 -297 -408 -544
-773 -996 -488 -605 -641 -831 -775 -1143 -133 -311 -148 -664 -42 -965 210
-595 864 -1055 1699 -1195 240 -40 393 -50 683 -43 651 15 1221 146 2487 573
1821 613 2720 958 3327 1274 996 521 1475 1046 1604 1760 15 87 20 157 20 285
0 287 -46 515 -162 802 l-50 123 118 132 c661 740 868 1121 850 1558 -14 333
-145 626 -396 885 -104 108 -194 175 -326 240 -132 65 -224 91 -370 107 -93 9
-127 9 -225 -6 -191 -27 -387 -99 -595 -217 -183 -103 -203 -111 -269 -111
-78 1 -155 25 -373 119 -230 98 -342 138 -484 173 -287 70 -500 64 -719 -20
-373 -145 -640 -571 -640 -1026 0 -319 123 -616 387 -936 157 -191 494 -512
913 -869 651 -555 1146 -919 1250 -919 17 0 101 78 327 304 167 167 305 301
307 297 9 -15 49 -154 66 -231 59 -271 50 -542 -27 -775 -166 -505 -599 -903
-1431 -1319 -296 -148 -651 -297 -1152 -484 -733 -274 -2693 -944 -3100 -1061
-495 -141 -832 -206 -1234 -238 -191 -14 -243 -15 -405 -4 -629 42 -1124 231
-1465 559 -335 322 -425 705 -264 1117 107 274 254 494 768 1155 364 468 606
799 841 1150 313 469 506 811 645 1142 48 115 50 118 84 123 217 33 362 74
515 145 263 121 532 340 706 575 178 240 305 501 465 957 47 134 63 168 77
168 10 0 27 5 38 10 22 13 26 70 8 147 l-11 48 101 228 c176 395 308 749 372
995 98 379 -36 578 -460 683 -82 20 -117 34 -128 49 -32 45 -96 61 -144 35z
m-49 -2274 c0 -22 -147 -376 -204 -491 -120 -245 -229 -404 -381 -556 -214
-215 -495 -375 -777 -441 -101 -24 -133 -27 -298 -28 -164 0 -193 3 -255 22
-117 37 -204 106 -287 227 -136 198 -201 501 -209 971 l-2 120 39 -3 c21 -2
75 -16 119 -32 44 -15 138 -49 209 -74 229 -82 541 -123 806 -105 350 23 736
141 1095 334 119 64 145 74 145 56z"/>
</g>
</svg>
